<?xml version="1.0" encoding="UTF-8" standalone="no"?>
<!-- Creator: CorelDRAW -->

<svg
   xmlns:dc="http://purl.org/dc/elements/1.1/"
   xmlns:cc="http://creativecommons.org/ns#"
   xmlns:rdf="http://www.w3.org/1999/02/22-rdf-syntax-ns#"
   xmlns:svg="http://www.w3.org/2000/svg"
   xmlns="http://www.w3.org/2000/svg"
   xmlns:xlink="http://www.w3.org/1999/xlink"
   xmlns:sodipodi="http://sodipodi.sourceforge.net/DTD/sodipodi-0.dtd"
   xmlns:inkscape="http://www.inkscape.org/namespaces/inkscape"
   xml:space="preserve"
   width="4.92254in"
   height="1.93762in"
   style="fill-rule:evenodd;image-rendering:optimizeQuality;shape-rendering:geometricPrecision;text-rendering:geometricPrecision"
   viewBox="0 0 4922.54 1937.62"
   version="1.1"
   id="svg9"
   sodipodi:docname="probability-line.svg"
   inkscape:version="0.92.4 (5da689c313, 2019-01-14)"><metadata
   id="metadata13"><rdf:RDF><cc:Work
       rdf:about=""><dc:format>image/svg+xml</dc:format><dc:type
         rdf:resource="http://purl.org/dc/dcmitype/StillImage" /><dc:title></dc:title></cc:Work></rdf:RDF></metadata><sodipodi:namedview
   pagecolor="#ffffff"
   bordercolor="#666666"
   borderopacity="1"
   objecttolerance="10"
   gridtolerance="10"
   guidetolerance="10"
   inkscape:pageopacity="0"
   inkscape:pageshadow="2"
   inkscape:window-width="640"
   inkscape:window-height="480"
   id="namedview11"
   showgrid="false"
   inkscape:current-layer="svg9" />
 <defs
   id="defs4"><style
     type="text/css"
     id="style2">
   <![CDATA[
    .str0 {stroke:#000000;stroke-width:3}
    .fil0 {fill:#000000}
   ]]>
  </style><marker
     style="overflow:visible"
     orient="auto"
     id="id28"><path
       inkscape:connector-curvature="0"
       d="M 0,0 5,-5 -12.5,0 5,5 Z"
       transform="matrix(-0.4,0,0,-0.4,-4,0)"
       style="fill:#db0a30;stroke:#db0a30;stroke-width:1pt"
       id="path2172" /></marker><marker
     style="overflow:visible"
     orient="auto"
     id="id27"><path
       inkscape:connector-curvature="0"
       d="M 0,0 5,-5 -12.5,0 5,5 Z"
       transform="matrix(-0.4,0,0,-0.4,-4,0)"
       style="fill:#662cca;stroke:#662cca;stroke-width:1pt"
       id="path2175" /></marker><marker
     style="overflow:visible"
     orient="auto"
     id="id26"><path
       inkscape:connector-curvature="0"
       d="M 0,0 5,-5 -12.5,0 5,5 Z"
       transform="matrix(-0.4,0,0,-0.4,-4,0)"
       style="fill:#4037fd;stroke:#4037fd;stroke-width:1pt"
       id="path2178" /></marker><marker
     style="overflow:visible"
     orient="auto"
     id="id25"><path
       inkscape:connector-curvature="0"
       d="M 0,0 5,-5 -12.5,0 5,5 Z"
       transform="matrix(-0.4,0,0,-0.4,-4,0)"
       style="fill:#9b1d84;stroke:#9b1d84;stroke-width:1pt"
       id="path2245" /></marker><linearGradient
     gradientTransform="matrix(0.398641,0,0,0.398641,-4505.11,411.289)"
     xlink:href="#id05"
     x1="-537.6"
     y1="137.3"
     x2="-448.6"
     y2="79.6"
     gradientUnits="userSpaceOnUse"
     id="id23" /><linearGradient
     id="id05"><stop
       offset="0"
       style="stop-color:#ddd800;stop-opacity:1"
       id="stop2227" /><stop
       offset="0.24"
       style="stop-color:#7f7c00;stop-opacity:1"
       id="stop2229" /><stop
       offset="0.48"
       style="stop-color:#fff900;stop-opacity:1"
       id="stop2231" /><stop
       offset="1"
       style="stop-color:#fff901;stop-opacity:1"
       id="stop2233" /></linearGradient><linearGradient
     gradientTransform="matrix(0.365813,0,0,0.365813,-4789.63,416.817)"
     xlink:href="#id06"
     x1="194.7"
     y1="93.8"
     x2="287.7"
     y2="137.4"
     gradientUnits="userSpaceOnUse"
     id="id24" /><linearGradient
     id="id06"><stop
       offset="0"
       style="stop-color:#ea8f00;stop-opacity:1"
       id="stop2236" /><stop
       offset="0.48"
       style="stop-color:#fff900;stop-opacity:1"
       id="stop2238" /><stop
       offset="1"
       style="stop-color:#ea8f00;stop-opacity:1"
       id="stop2240" /></linearGradient><radialGradient
     r="9.5863"
     cx="112.6"
     cy="27.7"
     gradientTransform="matrix(1.5254,-0.012486,0.011413,1.0307,-597.11,347.15)"
     xlink:href="#id01"
     gradientUnits="userSpaceOnUse"
     id="id18" /><linearGradient
     id="id01"><stop
       offset="0"
       stop-color="#fff"
       id="stop2194" /><stop
       offset="1"
       stop-color="#696cff"
       id="stop2196" /></linearGradient><radialGradient
     r="9.5863"
     cx="112.6"
     cy="27.7"
     gradientTransform="matrix(1.5254,-0.012486,0.011413,1.0307,-618.12,312.04)"
     xlink:href="#id01"
     gradientUnits="userSpaceOnUse"
     id="id19" /><radialGradient
     r="9.5863"
     cx="112.6"
     cy="27.7"
     gradientTransform="matrix(1.5254,-0.012486,0.011413,1.0307,-596.99,323.22)"
     xlink:href="#id01"
     gradientUnits="userSpaceOnUse"
     id="id20" /><radialGradient
     r="9.5863"
     cx="112.6"
     cy="27.7"
     gradientTransform="matrix(1.5254,-0.012486,0.011413,1.0307,-618.12,335.72)"
     xlink:href="#id01"
     gradientUnits="userSpaceOnUse"
     id="id21" /><radialGradient
     r="9.5863"
     cx="112.6"
     cy="27.7"
     gradientTransform="matrix(1.5254,-0.012486,0.011413,1.0307,-618.12,359.4)"
     gradientUnits="userSpaceOnUse"
     id="id22"><stop
       offset="0"
       stop-color="#fff"
       id="stop2215" /><stop
       offset="1"
       stop-color="#f40"
       id="stop2217" /></radialGradient><linearGradient
     gradientTransform="matrix(4.26144,0,0,4.24561,496.993,729.441)"
     xlink:href="#id03"
     x1="112.8"
     y1="166.7"
     x2="112.8"
     y2="200.5"
     gradientUnits="userSpaceOnUse"
     id="id17" /><linearGradient
     id="id03"><stop
       offset="0"
       id="stop2200" /><stop
       offset="1"
       stop-color="#343434"
       id="stop2202" /></linearGradient><linearGradient
     gradientTransform="matrix(4.26144,0,0,4.24561,54.9734,604.593)"
     xlink:href="#id02"
     x1="217"
     y1="254.3"
     x2="217"
     y2="162.1"
     gradientUnits="userSpaceOnUse"
     id="id16" /><linearGradient
     id="id02"><stop
       offset="0"
       style="stop-color:#e2e2e2;stop-opacity:1"
       stop-color="#fff"
       id="stop2189" /><stop
       offset="1"
       stop-color="#696cff"
       id="stop2191" /></linearGradient><linearGradient
     gradientTransform="matrix(1.60528,1.00355e-6,0,4.12536,1269.02,1586.34)"
     xlink:href="#id03"
     x1="112.8"
     y1="166.7"
     x2="112.8"
     y2="200.5"
     gradientUnits="userSpaceOnUse"
     id="id15" /><linearGradient
     gradientTransform="matrix(1.60528,1.00355e-6,0,4.12536,1217,1461.71)"
     xlink:href="#id03"
     x1="112.8"
     y1="166.7"
     x2="112.8"
     y2="200.5"
     gradientUnits="userSpaceOnUse"
     id="id14" /><linearGradient
     gradientTransform="matrix(1.60528,1.00355e-6,0,4.12536,1076.34,1402.55)"
     xlink:href="#id04"
     x1="217"
     y1="254.3"
     x2="217"
     y2="162.1"
     gradientUnits="userSpaceOnUse"
     id="id13" /><linearGradient
     id="id04"><stop
       offset="0"
       style="stop-color:#cecece;stop-opacity:1"
       stop-color="#fff"
       id="stop2184" /><stop
       offset="1"
       style="stop-color:#3a3eff;stop-opacity:1"
       stop-color="#696cff"
       id="stop2186" /></linearGradient><linearGradient
     gradientTransform="matrix(0.41891,0,0,0.14947,704.26,727.32)"
     xlink:href="#id03"
     x1="112.8"
     y1="166.7"
     x2="112.8"
     y2="200.5"
     gradientUnits="userSpaceOnUse"
     id="id09" /><linearGradient
     gradientTransform="matrix(0.41891,0,0,0.14947,719.23,722.26)"
     xlink:href="#id03"
     x1="112.8"
     y1="166.7"
     x2="112.8"
     y2="200.5"
     gradientUnits="userSpaceOnUse"
     id="id10" /><linearGradient
     gradientTransform="matrix(0.41891,0,0,0.14947,719.23,727.32)"
     xlink:href="#id03"
     x1="112.8"
     y1="166.7"
     x2="112.8"
     y2="200.5"
     gradientUnits="userSpaceOnUse"
     id="id11" /><linearGradient
     gradientTransform="matrix(0.41891,0,0,0.14947,704.26,722.26)"
     xlink:href="#id03"
     x1="112.8"
     y1="166.7"
     x2="112.8"
     y2="200.5"
     gradientUnits="userSpaceOnUse"
     id="id12" /><marker
     style="overflow:visible"
     orient="auto"
     id="id08"><path
       inkscape:connector-curvature="0"
       d="M 0,0 5,-5 -12.5,0 5,5 Z"
       transform="matrix(-0.4,0,0,-0.4,-4,0)"
       style="fill:#fb0003;stroke:#fa0004;stroke-width:1pt"
       id="path2181" /></marker><linearGradient
     gradientTransform="matrix(5.44658,0,0,5.44658,46.2767,-1500.12)"
     x1="64"
     y1="458.4"
     x2="847.3"
     y2="458.4"
     gradientUnits="userSpaceOnUse"
     id="id07"><stop
       offset="0"
       stop-color="#f00"
       id="stop2220" /><stop
       offset="1"
       style="stop-color:#3e38ff;stop-opacity:1"
       stop-color="#00f"
       id="stop2222" /></linearGradient></defs>
 
<path
   style="fill:#4037fd;fill-opacity:1;stroke:#000000;stroke-width:0.174952"
   inkscape:connector-curvature="0"
   id="path6"
   d="m 4861.03,492.352 h -66.08 c -30.31,34.873 -63.26,60.417 -98.65,76.569 -11.15,0.93 -19.48,1.405 -24.8,1.405 -15.09,0 -32.18,-2.746 -51.37,-8.05 l -15.87,8.05 h -19 c -43.39,0 -65.14,-15.571 -65.14,-46.545 0,-1.807 0.28,-4.374 0.86,-8.04 -31.83,-2.577 -47.86,-17.8 -47.86,-45.489 0,-2.979 0.28,-7.067 0.86,-12.371 -11.78,-3.317 -20.69,-8.62 -26.7,-16.036 -6.07,-7.226 -9.1,-16.618 -9.1,-27.816 0,-9.032 3.2,-18.899 9.68,-29.157 -15.87,-17.092 -23.86,-36.097 -23.86,-57.088 0,-24.203 13.14,-43.683 39.43,-58.494 26.29,-14.642 61.06,-22.048 104.45,-22.048 h 11.02 c -3.5,-26.59 -11.67,-52.313 -24.32,-77.097 l -7.11,-12.36 c -15.29,-29.221 -22.98,-51.849 -22.98,-67.7058 0,-43.9677 23.09,-71.498 69.51,-82.41074 l 12.84,-3.13756 22.22,98.3731 81.92,87.186 c 5.6,6.529 15.22,19.069 29.17,37.619 l 12.36,16.322 c 13.3,18.022 22.68,29.041 28.11,32.96 5.48,4.078 14.23,6.064 26.3,6.064 h 51.84 c 15.87,33.816 23.86,68.752 23.86,104.384 0,34.757 -7.24,69.861 -21.59,104.913 z m -14.69,-22.977 c 9.27,-26.896 13.76,-52.599 13.76,-77.097 0,-28.872 -4.95,-57.269 -15.1,-85.38 -37.15,0 -60.42,-2.271 -69.81,-6.645 -9.5,-4.373 -23.74,-19.945 -42.63,-46.535 -7.52,-10.268 -19.01,-24.963 -33.99,-43.683 l -89,-94.76 -17.67,-82.0518 c -29.62,10.1416 -44.43,29.0409 -44.43,56.856 0,14.3458 4.95,30.0238 15.1,46.8308 l 5.72,9.793 c 23.15,38.433 34.64,74.995 34.64,109.868 l 0.46,12.423 h -16.03 c -46.83,0 -82.23,4.659 -105.79,13.881 -23.74,9.392 -35.52,23.442 -35.52,42.331 0,17.093 6.18,31.555 18.43,43.334 12.24,11.843 27.23,17.727 44.9,17.727 l 27.07,0.296 80.23,-36.162 c -12.11,-18.254 -28.39,-27.466 -48.8,-27.466 -5.31,0 -12.14,1.225 -20.3,3.444 -8.28,2.45 -17.95,6.063 -29.28,10.722 l -20.87,0.94 -20.82,-22.216 35.92,-0.465 c 10.44,-4.373 19.84,-7.701 28.4,-9.687 8.51,-2.092 16.33,-3.138 23.45,-3.138 37.79,0 65.44,19.174 82.8,57.554 l -15.09,7.109 c 18.6,9.096 32.95,25.08 43.04,47.761 l -17.38,7.406 c 13.65,8.631 26.19,23.272 37.67,43.799 l -27.35,12.888 c 14.92,11.018 27.06,26.421 36.27,46.535 l -54.41,24.319 c 8.75,1.806 16.32,2.736 22.51,2.736 l 17.2,-0.465 c 39.31,-22.681 71.21,-50.328 95.7,-82.802 z m -201.89,-64.209 c -10.27,-13.765 -22.63,-22.692 -37.15,-26.484 l -66.02,29.632 h -23.43 c -22.23,0 -39.02,-3.148 -50.51,-9.391 -3.73,5.313 -5.72,10.437 -5.72,15.106 0,9.096 4.56,15.857 13.47,20.59 9.05,4.543 22.52,6.761 40.47,6.761 h 47.01 z m 18.6,51.786 c -1.34,-1.807 -2.57,-3.328 -3.43,-4.49 -7.12,-8.166 -15.58,-14.695 -25.26,-19.364 l -67.89,30.087 -71.6,-0.465 -1.35,5.715 c 0,17.389 17.21,26.188 51.85,26.188 h 33.24 z m 9.39,59.708 c -2.1,-2.556 -3.62,-4.658 -4.84,-6.18 -5.6,-8.039 -12.72,-15.096 -21.29,-21.625 l -63.33,28.281 h -40.82 v 2.683 c 0,19.818 14.34,29.622 43.1,29.622 h 14.46 z"
   class="fil0 str0" /><path
   inkscape:connector-curvature="0"
   d="M 408.507,996.761 H 4648.1"
   style="color:#000000;fill:none;stroke:url(#id07);stroke-width:34.895832"
   id="path2250" /><path
   inkscape:connector-curvature="0"
   d="m 413.717,750.921 v 202.09"
   style="fill:#fb0003;stroke:#fa0004;stroke-width:21.770832;marker-end:url(#id08)"
   id="path2254" /><rect
   x="2847.02"
   y="2205.5"
   rx="43.75"
   ry="43.75"
   width="397.917"
   height="141.667"
   style="fill:#19aeff;fill-opacity:0.47;stroke:#7f7f7f;stroke-width:7.39583;stroke-linecap:round;stroke-linejoin:round"
   transform="matrix(0.996565,0.08281,-0.877985,0.478687,0,0)"
   id="rect2256" /><g
   transform="matrix(10.4167,0,0,10.4167,35.0367,-3060.43)"
   id="g2266"><ellipse
     cx="751.5"
     cy="754.1"
     rx="5"
     ry="1.8"
     transform="matrix(0.99657,0.08281,-0.87799,0.47869,0,0)"
     style="fill:url(#id09)"
     id="ellipse2258" /><ellipse
     cx="766.5"
     cy="749"
     rx="5"
     ry="1.8"
     transform="matrix(0.99657,0.08281,-0.87799,0.47869,0,0)"
     style="fill:url(#id10)"
     id="ellipse2260" /><ellipse
     cx="766.5"
     cy="754.1"
     rx="5"
     ry="1.8"
     transform="matrix(0.99657,0.08281,-0.87799,0.47869,0,0)"
     style="fill:url(#id11)"
     id="ellipse2262" /><ellipse
     cx="751.5"
     cy="749"
     rx="5"
     ry="1.8"
     transform="matrix(0.99657,0.08281,-0.87799,0.47869,0,0)"
     style="fill:url(#id12)"
     id="ellipse2264" /></g><rect
   x="1351.25"
   y="2072.89"
   rx="15.625"
   ry="41.6667"
   width="146.875"
   height="376.042"
   style="fill:url(#id13);stroke:#999999;stroke-width:5.833333"
   transform="matrix(0.865552,-0.500819,0,1,0,0)"
   id="rect2268" /><ellipse
   cx="1398.12"
   cy="2201.01"
   rx="18.75"
   ry="48.9583"
   transform="matrix(0.865552,-0.500819,0,1,0,0)"
   style="fill:url(#id14);stroke-width:5.833333"
   id="ellipse2270" /><ellipse
   cx="1450.21"
   cy="2324.97"
   rx="18.75"
   ry="48.9583"
   transform="matrix(0.865552,-0.500819,0,1,0,0)"
   style="fill:url(#id15);stroke-width:5.833333"
   id="ellipse2272" /><rect
   x="785.593"
   y="1294.66"
   rx="42.7083"
   ry="42.7083"
   width="388.542"
   height="387.5"
   style="fill:url(#id16);stroke:#999999;stroke-width:5.416667"
   transform="matrix(0.99628,0.086178,0,1,0,0)"
   id="rect2274" /><circle
   cx="977.263"
   cy="1489.44"
   transform="matrix(0.99628,0.086177,0,1,0,0)"
   style="fill:url(#id17);stroke-width:5.416667"
   id="ellipse2276"
   r="51.0417" /><g
   transform="matrix(10.4167,0,0,10.4167,35.0367,-3060.43)"
   id="g2288"><ellipse
     cx="-429.2"
     cy="378.8"
     rx="10.3"
     ry="10.1"
     transform="rotate(-90)"
     style="color:#000000;fill:url(#id18)"
     id="ellipse2278" /><ellipse
     cx="-450.2"
     cy="343.7"
     rx="10.3"
     ry="10.1"
     transform="rotate(-90)"
     style="color:#000000;fill:url(#id19)"
     id="ellipse2280" /><ellipse
     cx="-429"
     cy="354.9"
     rx="10.3"
     ry="10.1"
     transform="rotate(-90)"
     style="color:#000000;fill:url(#id20)"
     id="ellipse2282" /><ellipse
     cx="-450.2"
     cy="367.4"
     rx="10.3"
     ry="10.1"
     transform="rotate(-90)"
     style="color:#000000;fill:url(#id21)"
     id="ellipse2284" /><ellipse
     cx="-450.2"
     cy="391.1"
     rx="10.3"
     ry="10.1"
     transform="rotate(-90)"
     style="color:#000000;fill:url(#id22)"
     id="ellipse2286" /></g><text
   x="-10.2432"
   y="714.461"
   style="font-size:153.125px;font-family:Verdana;fill:#fc0002;stroke-width:10.416667"
   id="text2290">Impossible</text>
<text
   x="4380.4"
   y="714.461"
   style="font-size:153.125px;font-family:Verdana;fill:#3e38ff;stroke-width:10.416667"
   id="text2292">Certain</text>
<text
   x="2034.56"
   y="714.461"
   style="font-size:153.125px;font-family:Verdana;fill:#9b1d84;stroke-width:10.416667"
   id="text2294">Even Chance</text>
<text
   x="1147.06"
   y="714.461"
   style="font-size:153.125px;font-family:Verdana;fill:#cf0e3f;stroke-width:10.416667"
   id="text2296">Unlikely</text>
<text
   x="3499.15"
   y="714.461"
   style="font-size:153.125px;font-family:Verdana;fill:#692cc6;stroke-width:10.416667"
   id="text2298">Likely</text>
<text
   x="1090.81"
   y="1935.3"
   style="font-size:153.125px;font-family:Verdana;text-align:center;text-anchor:middle;fill:#dc0022;stroke-width:10.416667"
   id="text2300">1-in-6 Chance</text>
<text
   x="3884.56"
   y="1921.76"
   style="font-size:153.125px;font-family:Verdana;text-align:center;text-anchor:middle;fill:#662cca;stroke-width:10.416667"
   id="text2302">4-in-5 Chance</text>
<text
   x="334.547"
   y="1261.34"
   style="font-size:260.416656px;font-family:Verdana;fill:#fc0002;stroke-width:10.416667"
   id="text2304">0</text>
<text
   x="4562.69"
   y="1253.01"
   style="font-size:260.416656px;font-family:Verdana;fill:#3e38ff;stroke-width:10.416667"
   id="text2306">1</text>
<circle
   r="204.167"
   cx="413.717"
   cy="310.301"
   style="fill:none;stroke:#fb0003;stroke-width:50.9375;stroke-linejoin:round"
   id="ellipse2308" /><path
   inkscape:connector-curvature="0"
   d="m 263.717,434.261 315.63,-262.5"
   style="fill:none;stroke:#fb0003;stroke-width:50.9375"
   id="path2310" /><g
   transform="matrix(14.9458,1.64756,-1.65391,14.8885,-1382.03,-223.099)"
   id="g2346"><path
     inkscape:connector-curvature="0"
     d="m 278.1,-7.2 c 3.4,1.4 7.4,4.3 9.4,7.9"
     style="fill:none;stroke:#999999;stroke-width:0.79"
     id="path2312" /><path
     inkscape:connector-curvature="0"
     d="m 275.4,-11.5 c 6.2,1.9 13.3,6.1 16.1,12.3"
     style="fill:none;stroke:#666666;stroke-width:0.79"
     id="path2314" /><path
     inkscape:connector-curvature="0"
     d="M 249.4,15.2 C 245.6,13.7 242.2,10.5 240,7.3"
     style="fill:none;stroke:#999999;stroke-width:0.79"
     id="path2316" /><path
     inkscape:connector-curvature="0"
     d="M 251.3,18.5 C 244.6,16.2 239,11.8 235.6,4.9"
     style="fill:none;stroke:#666666;stroke-width:0.79"
     id="path2318" /><g
     transform="matrix(0.678143,-0.497346,0.167316,0.82138,3374.85,-2707.69)"
     id="g2342"><circle
       cx="-4700.8"
       cy="455.1"
       r="19.3418"
       style="color:#000000;overflow:visible;fill:url(#id23);stroke-width:0.2"
       id="circle2320" /><circle
       cx="-4700.8"
       cy="455.1"
       r="19.3418"
       style="color:#000000;overflow:visible;fill:#c4a000;stroke-width:0.2"
       id="circle2322" /><path
       inkscape:connector-curvature="0"
       d="m -4700.7,437.3 c 9.8,0 17.7,7.9 17.7,17.7 0,9.8 -7.9,17.7 -17.7,17.7 -9.8,0 -17.7,-7.9 -17.7,-17.7 0,-9.8 7.9,-17.7 17.7,-17.7 z"
       style="fill:url(#id24);stroke-width:0.25"
       id="path2324" /><g
       transform="matrix(0.244789,0,0,0.244789,-4790.88,313.222)"
       id="g2332"><path
         inkscape:connector-curvature="0"
         d="m 335.5,552.8 c 8.1,-5.3 16.7,-10 20,-22 h 20.8 v 79.7 h 9.8 v 10.6 h -43.9 v -11 H 354 v -57.3 z"
         style="fill:#eaedeb;stroke:#adaeaf;stroke-width:1px"
         id="path2326" /><path
         inkscape:connector-curvature="0"
         d="m 336.7,551.6 c 9.3,-4.4 16.4,-11.2 20,-22 h 20.8 v 79.7 h 9.8 v 10.6 h -43.9 v -11 h 11.8 v -57.3 z"
         style="fill:#eaedeb;stroke:#c8cacf;stroke-width:1px"
         id="path2328" /><path
         inkscape:connector-curvature="0"
         d="M 369.6,539.5 V 611"
         style="fill:#eaedeb;stroke:#bcc0c3;stroke-width:1px"
         id="path2330" /></g><text
       x="-2345.1"
       y="-4084"
       transform="rotate(-65.7694)"
       style="color:#000000;font-size:6.7px;font-family:Verdana;overflow:visible;fill:#c4a000;stroke-width:1px"
       id="text2334">2</text>
<text
       x="-826.9"
       y="-4634"
       transform="rotate(-85.4601)"
       style="color:#000000;font-size:6.7px;font-family:Verdana;overflow:visible;fill:#c4a000;stroke-width:1px"
       id="text2336">0</text>
<text
       x="812.5"
       y="-4636"
       transform="rotate(-105.461)"
       style="color:#000000;font-size:6.7px;font-family:Verdana;overflow:visible;fill:#c4a000;stroke-width:1px"
       id="text2338">1</text>
<text
       x="1535.5"
       y="-4449.8"
       transform="rotate(-114.508)"
       style="color:#000000;font-size:6.7px;font-family:Verdana;overflow:visible;fill:#c4a000;stroke-width:1px"
       id="text2340">7</text>
</g><path
     inkscape:connector-curvature="0"
     d="M 252.8,21.6 C 246,20 239.9,16.1 235.8,9.6"
     style="fill:none;stroke:#2d2d2d;stroke-width:0.79"
     id="path2344" /></g><path
   inkscape:connector-curvature="0"
   d="m 2530.4,750.921 v 202.09"
   style="fill:none;stroke:#9b1d84;stroke-width:21.770832;marker-end:url(#id25)"
   id="path2348" /><path
   inkscape:connector-curvature="0"
   d="m 4648.1,750.921 v 202.09"
   style="fill:none;stroke:#4037fd;stroke-width:21.770832;marker-end:url(#id26)"
   id="path2350" /><path
   inkscape:connector-curvature="0"
   d="M 3856.44,1229.05 V 1026.97"
   style="fill:none;stroke:#662cca;stroke-width:21.770832;marker-end:url(#id27)"
   id="path2352" /><path
   inkscape:connector-curvature="0"
   d="M 1089.77,1246.76 V 1044.68"
   style="fill:none;stroke:#db0a30;stroke-width:21.770832;marker-end:url(#id28)"
   id="path2354" /></svg>